<svg viewBox="0 -52 512 512" xmlns="http://www.w3.org/2000/svg"><path d="m504.484375 0h-496.96875c-4.152344 0-7.515625 3.363281-7.515625 7.515625v392.765625c0 4.152344 3.363281 7.515625 7.515625 7.515625h496.96875c4.152344 0 7.515625-3.363281 7.515625-7.515625v-392.765625c0-4.152344-3.363281-7.515625-7.515625-7.515625zm-489.453125 392.765625v-329.640625h81.15625c4.152344 0 7.515625-3.367188 7.515625-7.515625 0-4.152344-3.363281-7.515625-7.515625-7.515625h-81.15625v-33.0625h481.9375v33.0625h-364.710938c-4.148437 0-7.515624 3.363281-7.515624 7.515625 0 4.148437 3.367187 7.515625 7.515624 7.515625h364.710938v329.640625zm0 0"/><path d="m455.890625 31.5625c0 4.148438-3.363281 7.515625-7.515625 7.515625-4.148438 0-7.515625-3.367187-7.515625-7.515625 0-4.152344 3.367187-7.515625 7.515625-7.515625 4.152344 0 7.515625 3.363281 7.515625 7.515625zm0 0"/><path d="m431.84375 31.5625c0 4.148438-3.363281 7.515625-7.515625 7.515625-4.148437 0-7.515625-3.367187-7.515625-7.515625 0-4.152344 3.367188-7.515625 7.515625-7.515625 4.152344 0 7.515625 3.363281 7.515625 7.515625zm0 0"/><path d="m479.9375 31.5625c0 4.148438-3.363281 7.515625-7.515625 7.515625-4.148437 0-7.515625-3.367187-7.515625-7.515625 0-4.152344 3.367188-7.515625 7.515625-7.515625 4.152344 0 7.515625 3.363281 7.515625 7.515625zm0 0"/><path d="m247.984375 96.1875h-192.375c-4.152344 0-7.515625 3.363281-7.515625 7.515625v248.484375c0 4.152344 3.363281 7.515625 7.515625 7.515625h192.375c4.148437 0 7.515625-3.363281 7.515625-7.515625v-248.484375c0-4.152344-3.367188-7.515625-7.515625-7.515625zm-7.515625 248.484375h-177.34375v-233.453125h177.34375zm0 0"/><path d="m456.390625 96.1875h-168.328125c-4.148438 0-7.515625 3.363281-7.515625 7.515625v88.171875c0 4.148438 3.367187 7.515625 7.515625 7.515625h168.328125c4.152344 0 7.515625-3.367187 7.515625-7.515625v-88.171875c0-4.152344-3.363281-7.515625-7.515625-7.515625zm-7.515625 88.171875h-153.296875v-73.140625h153.296875zm0 0"/><path d="m456.390625 224.4375h-168.328125c-4.148438 0-7.515625 3.367188-7.515625 7.515625v120.234375c0 4.152344 3.367187 7.515625 7.515625 7.515625h168.328125c4.152344 0 7.515625-3.363281 7.515625-7.515625v-120.234375c0-4.148437-3.363281-7.515625-7.515625-7.515625zm-7.515625 120.234375h-153.296875v-105.203125h153.296875zm0 0"/></svg>