<svg height="650pt" viewBox="-103 -20 650 650.66633" width="650pt" xmlns="http://www.w3.org/2000/svg"><path d="m27.003906 491.167969.578125.644531c2.585938 8.230469 6.273438 16.078125 10.953125 23.328125 16.355469 25.351563 45.097656 44.351563 87.878906 58.09375.484376.15625.984376.265625 1.488282.332031 9.996094 4.027344 20.667968 6.089844 31.445312 6.085938 5.429688 0 10.851563-.519532 16.1875-1.542969 18.730469-3.609375 35.019532-13.308594 45.863282-27.316406 1.875-2.417969 2.441406-5.601563 1.507812-8.515625-1.246094-3.914063-4.667969-6.519532-11.078125-8.441406l-.179687-.046876c-21.859376-6.046874-34.664063-15.355468-38.058594-27.660156-5.503906-19.96875 14.257812-46.277344 22.328125-54.71875.375-.394531.714843-.820312 1.011719-1.273437 13.230468-20.234375 26.265624-50.496094 13.230468-79.789063-2.042968-4.550781-4.636718-8.832031-7.730468-12.738281.585937.042969 1.175781.085937 1.765624.085937 11.042969-.003906 20.53125-7.820312 22.660157-18.652343 2.125-10.832031-3.707031-21.652344-13.929688-25.828125l-22.894531-9.347656 112.414062-275.246094c2.839844-6.855469 1.792969-14.707032-2.742187-20.574219-4.535156-5.875-11.871094-8.867187-19.21875-7.851563-7.351563 1.015626-13.589844 5.890626-16.363281 12.773438l-112.414063 275.246094-22.898437-9.355469c-8.644532-3.53125-18.5625-1.507813-25.136719 5.132813-6.570313 6.636718-8.496094 16.574218-4.878906 25.1875.308593.730468.652343 1.449218 1.035156 2.144531-42.75-.238281-81.335937 25.605469-97.382813 65.234375-16.046874 39.632812-6.316406 85.039062 24.558594 114.617187zm253.304688-471.59375c.695312-1.613281 2.546875-2.375 4.171875-1.710938 1.625.664063 2.417969 2.507813 1.777343 4.140625l-112.414062 275.246094-5.949219-2.429688zm-165.410156 278.539062c1.171874-2.863281 4.441406-4.238281 7.304687-3.070312l30.992187 12.65625 53.125 21.699219c2.824219 1.195312 4.164063 4.4375 3.003907 7.285156-1.160157 2.839844-4.390625 4.214844-7.246094 3.085937l-84.113281-34.347656c-1.378906-.5625-2.476563-1.644531-3.050782-3.015625-.574218-1.375-.582031-2.917969-.015624-4.292969zm-97.015626 86.972657c16.300782-43.5 63.988282-66.425782 108.144532-52 2.054687.671874 4.058594 1.492187 5.996094 2.453124l40.59375 19.960938c9.535156 4.578125 17.160156 12.34375 21.566406 21.960938 7.828125 17.585937 3.960937 38.597656-11.476563 62.472656-4.828125 5.226562-34.664062 39.164062-25.980469 70.796875 4.65625 16.96875 19.042969 29.601562 42.808594 37.632812-18.316406 15.105469-46.804687 18.4375-69.742187 6.917969-15.03125-7.496094-26.4375-20.691406-31.679688-36.652344-1.566406-4.511718-6.46875-6.933594-11.003906-5.429687-4.535156 1.5-7.027344 6.367187-5.59375 10.921875 1.472656 4.433594 3.328125 8.730468 5.535156 12.84375-40.765625-24.699219-54.164062-60.21875-43.09375-111 1.03125-4.722656-1.960937-9.378906-6.679687-10.40625-4.71875-1.03125-9.378906 1.960937-10.40625 6.679687-2.582032 11.410157-3.976563 23.058594-4.171875 34.753907-11.953125-22.136719-13.710938-48.371094-4.816407-71.90625zm0 0"/><path d="m75.375 415.621094h.292969c4.710937-.003906 8.574219-3.746094 8.730469-8.460938.582031-17.824218 7.695312-30.871094 21.136718-38.769531 6.605469-3.804687 13.9375-6.199219 21.511719-7.019531 4.792969-.332032 8.417969-4.460938 8.128906-9.25-.292969-4.792969-4.390625-8.457032-9.183593-8.207032-10.0625.957032-19.8125 4.019532-28.613282 8.996094-13.34375 7.617188-29.460937 23.117188-30.457031 53.675782-.164063 4.828124 3.621094 8.875 8.453125 9.035156zm0 0"/><path d="m360.160156 603.753906c4.832032 0 8.746094-3.914062 8.746094-8.742187 0-4.832031-3.914062-8.742188-8.746094-8.742188h-46.214844c-4.824218 0-8.742187 3.910157-8.742187 8.742188 0 4.828125 3.917969 8.742187 8.742187 8.742187zm0 0"/><path d="m268.980469 610c4.832031 0 8.742187-3.914062 8.742187-8.742188 0-4.832031-3.910156-8.746093-8.742187-8.746093h-75.628907c-4.832031 0-8.746093 3.914062-8.746093 8.746093 0 4.828126 3.914062 8.742188 8.746093 8.742188zm0 0"/><path d="m352.667969 558.789062h52.460937c18.625 0 33.722656-15.101562 33.722656-33.726562 0-18.621094-15.097656-33.722656-33.722656-33.722656h-16.238281c-11.726563 0-21.234375 9.507812-21.234375 21.234375 0 11.730469 9.507812 21.234375 21.234375 21.234375h4.996094c4.828125 0 8.742187-3.914063 8.742187-8.746094 0-4.828125-3.914062-8.742188-8.742187-8.742188h-4.996094c-2.070313 0-3.75-1.679687-3.75-3.746093 0-2.070313 1.679687-3.746094 3.75-3.746094h16.238281c8.964844 0 16.234375 7.269531 16.234375 16.234375 0 8.96875-7.269531 16.238281-16.234375 16.238281h-52.460937c-4.824219 0-8.742188 3.914063-8.742188 8.746094 0 4.828125 3.917969 8.742187 8.742188 8.742187zm0 0"/><path d="m246.5 550.046875c0 4.828125 3.914062 8.742187 8.742188 8.742187h59.953124c4.832032 0 8.742188-3.914062 8.742188-8.742187 0-4.832031-3.910156-8.746094-8.742188-8.746094h-59.953124c-4.828126 0-8.742188 3.914063-8.742188 8.746094zm0 0"/></svg>