<?xml version="1.0" encoding="windows-1252"?>
<!-- Generator: Adobe Illustrator 18.0.0, SVG Export Plug-In . SVG Version: 6.00 Build 0)  -->
<!DOCTYPE svg PUBLIC "-//W3C//DTD SVG 1.1//EN" "http://www.w3.org/Graphics/SVG/1.1/DTD/svg11.dtd">
<svg version="1.1" id="Capa_1" xmlns="http://www.w3.org/2000/svg" xmlns:xlink="http://www.w3.org/1999/xlink" x="0px" y="0px" viewBox="0 0 60 60" style="enable-background:new 0 0 60 60;" xml:space="preserve">
<g>
	<path d="M24.673,14c0.553,0,1-0.448,1-1s-0.447-1-1-1h-1.972c-0.553,0-1,0.448-1,1s0.447,1,1,1H24.673z"/>
	<path d="M30.587,14c0.553,0,1-0.448,1-1s-0.447-1-1-1h-1.971c-0.553,0-1,0.448-1,1s0.447,1,1,1H30.587z"/>
	<path d="M36.501,14c0.553,0,1-0.448,1-1s-0.447-1-1-1H34.53c-0.553,0-1,0.448-1,1s0.447,1,1,1H36.501z"/>
	<path d="M25.62,58h-1.972c-0.553,0-1,0.448-1,1s0.447,1,1,1h1.972c0.553,0,1-0.448,1-1S26.173,58,25.62,58z"/>
	<path d="M31.534,58h-1.972c-0.553,0-1,0.448-1,1s0.447,1,1,1h1.972c0.553,0,1-0.448,1-1S32.087,58,31.534,58z"/>
	<path d="M37.448,58h-1.972c-0.553,0-1,0.448-1,1s0.447,1,1,1h1.972c0.553,0,1-0.448,1-1S38.001,58,37.448,58z"/>
	<path d="M43.362,58h-1.972c-0.553,0-1,0.448-1,1s0.447,1,1,1h1.972c0.553,0,1-0.448,1-1S43.915,58,43.362,58z"/>
	<path d="M42.415,14c0.553,0,1-0.448,1-1s-0.447-1-1-1h-1.971c-0.553,0-1,0.448-1,1s0.447,1,1,1H42.415z"/>
	<path d="M14.096,55.919c-0.142-0.534-0.689-0.849-1.224-0.71c-0.533,0.142-0.852,0.689-0.71,1.223   c0.213,0.802,0.636,1.541,1.224,2.137c0.195,0.198,0.454,0.298,0.712,0.298c0.254,0,0.508-0.096,0.702-0.288   c0.394-0.388,0.397-1.021,0.01-1.414C14.466,56.816,14.219,56.385,14.096,55.919z"/>
	<path d="M12.658,14.377c-0.42,0.717-0.647,1.537-0.658,2.37c-0.007,0.552,0.435,1.005,0.987,1.013c0.004,0,0.009,0,0.013,0   c0.547,0,0.993-0.439,1-0.987c0.006-0.487,0.139-0.966,0.385-1.385c0.278-0.477,0.119-1.089-0.357-1.368   C13.55,13.74,12.938,13.9,12.658,14.377z"/>
	<path d="M48.329,14c0.553,0,1-0.448,1-1s-0.447-1-1-1H48V4.81C48,2.158,45.843,0,43.19,0H4.81C2.157,0,0,2.158,0,4.81v38.38   C0,45.842,2.157,48,4.81,48H13c0.553,0,1-0.448,1-1c0-0.119-0.03-0.229-0.068-0.335C13.97,46.56,14,46.449,14,46.331v-1.972   c0-0.552-0.447-1-1-1s-1,0.448-1,1V46H4.81C3.261,46,2,44.739,2,43.19V4.81C2,3.261,3.261,2,4.81,2H43.19   C44.739,2,46,3.261,46,4.81v7.262c-0.374,0.145-0.642,0.503-0.642,0.928c0,0.552,0.447,1,1,1H48.329z"/>
	<path d="M13,31.531c-0.553,0-1,0.448-1,1v1.971c0,0.552,0.447,1,1,1s1-0.448,1-1v-1.971C14,31.979,13.553,31.531,13,31.531z"/>
	<path d="M13,53.245c0.553,0,1-0.448,1-1v-1.972c0-0.552-0.447-1-1-1s-1,0.448-1,1v1.972C12,52.797,12.447,53.245,13,53.245z"/>
	<path d="M18.759,14c0.553,0,1-0.448,1-1s-0.447-1-1-1h-1.972c-0.553,0-0.988,0.448-0.988,1s0.458,1,1.011,1H18.759z"/>
	<path d="M14,20.703c0-0.552-0.447-1-1-1s-1,0.448-1,1v1.971c0,0.552,0.447,1,1,1s1-0.448,1-1V20.703z"/>
	<path d="M19.706,58h-1.972c-0.553,0-1,0.448-1,1s0.447,1,1,1h1.972c0.553,0,1-0.448,1-1S20.259,58,19.706,58z"/>
	<path d="M13,41.416c0.553,0,1-0.448,1-1v-1.971c0-0.552-0.447-1-1-1s-1,0.448-1,1v1.971C12,40.968,12.447,41.416,13,41.416z"/>
	<path d="M14,26.617c0-0.552-0.447-1-1-1s-1,0.448-1,1v1.971c0,0.552,0.447,1,1,1s1-0.448,1-1V26.617z"/>
	<path d="M58.864,16.803c0.088,0,0.177-0.012,0.265-0.036c0.533-0.146,0.847-0.696,0.701-1.228c-0.22-0.801-0.646-1.537-1.236-2.128   c-0.391-0.392-1.023-0.391-1.414-0.001c-0.392,0.39-0.392,1.023-0.002,1.415c0.345,0.346,0.595,0.775,0.723,1.242   C58.022,16.511,58.425,16.803,58.864,16.803z"/>
	<path d="M55.19,58h-1.972c-0.553,0-1,0.448-1,1s0.447,1,1,1l2.001,0l0.015-1v1c0.553,0,0.978-0.447,0.978-1   C56.212,58.447,55.743,58,55.19,58z"/>
	<path d="M54.244,14c0.553,0,1-0.448,1-1s-0.447-1-1-1h-1.972c-0.553,0-1,0.448-1,1s0.447,1,1,1H54.244z"/>
	<path d="M59.007,54.218c-0.002,0-0.005,0-0.007,0c-0.549,0-0.996,0.443-1,0.993c-0.004,0.488-0.134,0.967-0.376,1.385   c-0.278,0.478-0.115,1.09,0.362,1.367c0.158,0.092,0.33,0.135,0.501,0.135c0.345,0,0.68-0.178,0.866-0.498   c0.417-0.719,0.641-1.54,0.646-2.375C60.004,54.673,59.56,54.222,59.007,54.218z"/>
	<path d="M59,48.304c-0.553,0-1,0.448-1,1v1.971c0,0.552,0.447,1,1,1s1-0.448,1-1v-1.971C60,48.752,59.553,48.304,59,48.304z"/>
	<path d="M59,30.562c-0.553,0-1,0.448-1,1v1.972c0,0.552,0.447,1,1,1s1-0.448,1-1v-1.972C60,31.009,59.553,30.562,59,30.562z"/>
	<path d="M59,36.476c-0.553,0-1,0.448-1,1v1.971c0,0.552,0.447,1,1,1s1-0.448,1-1v-1.971C60,36.924,59.553,36.476,59,36.476z"/>
	<path d="M49.276,58h-1.972c-0.553,0-1,0.448-1,1s0.447,1,1,1h1.972c0.553,0,1-0.448,1-1S49.829,58,49.276,58z"/>
	<path d="M59,42.39c-0.553,0-1,0.448-1,1v1.971c0,0.552,0.447,1,1,1s1-0.448,1-1V43.39C60,42.838,59.553,42.39,59,42.39z"/>
	<path d="M59,18.733c-0.553,0-1,0.448-1,1v1.972c0,0.552,0.447,1,1,1s1-0.448,1-1v-1.972C60,19.181,59.553,18.733,59,18.733z"/>
	<path d="M59,24.647c-0.553,0-1,0.448-1,1v1.972c0,0.552,0.447,1,1,1s1-0.448,1-1v-1.972C60,25.095,59.553,24.647,59,24.647z"/>
	<circle cx="8" cy="8" r="1"/>
	<circle cx="5" cy="5" r="1"/>
	<circle cx="11" cy="5" r="1"/>
	<circle cx="14" cy="8" r="1"/>
	<circle cx="20" cy="8" r="1"/>
	<circle cx="32" cy="8" r="1"/>
	<circle cx="17" cy="5" r="1"/>
	<circle cx="23" cy="5" r="1"/>
	<circle cx="26" cy="8" r="1"/>
	<circle cx="29" cy="5" r="1"/>
	<circle cx="35" cy="5" r="1"/>
	<circle cx="38" cy="8" r="1"/>
	<circle cx="41" cy="5" r="1"/>
	<circle cx="44" cy="8" r="1"/>
	<circle cx="8" cy="20" r="1"/>
	<circle cx="8" cy="14" r="1"/>
	<circle cx="5" cy="11" r="1"/>
	<circle cx="5" cy="17" r="1"/>
	<circle cx="11" cy="11" r="1"/>
	<circle cx="8" cy="32" r="1"/>
	<circle cx="8" cy="26" r="1"/>
	<circle cx="5" cy="23" r="1"/>
	<circle cx="5" cy="29" r="1"/>
	<circle cx="8" cy="44" r="1"/>
	<circle cx="8" cy="38" r="1"/>
	<circle cx="5" cy="35" r="1"/>
	<circle cx="5" cy="41" r="1"/>
</g>
<g>
</g>
<g>
</g>
<g>
</g>
<g>
</g>
<g>
</g>
<g>
</g>
<g>
</g>
<g>
</g>
<g>
</g>
<g>
</g>
<g>
</g>
<g>
</g>
<g>
</g>
<g>
</g>
<g>
</g>
</svg>