<?xml version="1.0" encoding="iso-8859-1"?>
<!-- Generator: Adobe Illustrator 19.0.0, SVG Export Plug-In . SVG Version: 6.00 Build 0)  -->
<svg version="1.1" id="Capa_1" xmlns="http://www.w3.org/2000/svg" xmlns:xlink="http://www.w3.org/1999/xlink" x="0px" y="0px"
	 viewBox="0 0 480 480" style="enable-background:new 0 0 480 480;" xml:space="preserve">
<g>
	<g>
		<g>
			<path d="M308.003,374.4V336c0-2.758-1.421-5.322-3.76-6.784l-60.24-37.656V24c0-13.255-10.745-24-24-24s-24,10.745-24,24v267.56
				l-60.24,37.656c-2.339,1.462-3.76,4.026-3.76,6.784v40c0.051,0.521,0.156,1.036,0.312,1.536L92.667,468.8
				c-1.767,4.049,0.083,8.765,4.132,10.532c1.011,0.441,2.101,0.668,3.204,0.668h240c4.418,0,8-3.581,8.001-7.999
				c0-1.058-0.209-2.105-0.617-3.081L308.003,374.4z M212.003,24c0-4.418,3.582-8,8-8s8,3.582,8,8v232h-16V24z M212.003,272h16v16
				h-16V272z M148.003,340.432L206.299,304h27.408l58.296,36.432V368h-144V340.432z M305.763,464l-14.176-42.528
				c-1.396-4.197-5.931-6.468-10.128-5.072c-4.197,1.396-6.468,5.931-5.072,10.128L288.907,464h-23.144l-14.176-42.528
				c-1.396-4.197-5.931-6.468-10.128-5.072c-4.197,1.396-6.468,5.931-5.072,10.128L248.907,464h-57.808l12.488-37.472
				c1.396-4.197-0.875-8.732-5.072-10.128c-4.197-1.396-8.732,0.875-10.128,5.072L174.243,464h-23.144l12.488-37.472
				c1.396-4.197-0.875-8.732-5.072-10.128c-4.197-1.396-8.732,0.875-10.128,5.072L134.243,464h-22.048l34.752-80h147.72l33.336,80
				H305.763z"/>
			<path d="M292.003,280h8v8c0,4.418,3.582,8,8,8s8-3.582,8-8v-8h8c4.418,0,8-3.582,8-8s-3.582-8-8-8h-8v-8c0-4.418-3.582-8-8-8
				s-8,3.582-8,8v8h-8c-4.418,0-8,3.582-8,8S287.585,280,292.003,280z"/>
			<path d="M380.003,304h-8v-8c0-4.418-3.582-8-8-8s-8,3.582-8,8v8h-8c-4.418,0-8,3.582-8,8s3.582,8,8,8h8v8c0,4.418,3.582,8,8,8
				s8-3.582,8-8v-8h8c4.418,0,8-3.582,8-8S384.421,304,380.003,304z"/>
			<path d="M244.003,336h-48c-4.418,0-8,3.582-8,8s3.582,8,8,8h48c4.418,0,8-3.582,8-8S248.421,336,244.003,336z"/>
		</g>
	</g>
</g>
<g>
</g>
<g>
</g>
<g>
</g>
<g>
</g>
<g>
</g>
<g>
</g>
<g>
</g>
<g>
</g>
<g>
</g>
<g>
</g>
<g>
</g>
<g>
</g>
<g>
</g>
<g>
</g>
<g>
</g>
</svg>
